<?xml version="1.0" encoding="UTF-8"?>
<svg version="1.1" xmlns="http://www.w3.org/2000/svg" width="221" height="228">
<path d="M0 0 C72.93 0 145.86 0 221 0 C221 75.24 221 150.48 221 228 C148.07 228 75.14 228 0 228 C0 152.76 0 77.52 0 0 Z " fill="#D8E8EF" transform="translate(0,0)"/>
<path d="M0 0 C3.87789438 2.26479356 6.59877768 5.09493351 9.6015625 8.38671875 C11.79934041 10.24313967 13.52771986 10.71093704 16.3125 11.375 C23.06743093 13.06373273 27.99678015 17.238392 31.81640625 23.02734375 C32.83191154 24.97966203 33.67961927 26.87198049 34.4375 28.9375 C34.96923828 30.30648438 34.96923828 30.30648438 35.51171875 31.703125 C38.37840422 41.71838058 37.19238989 53.70177728 32.4375 62.9375 C30.69265766 65.27641072 28.8945352 67.35633469 26.828125 69.4140625 C25.21277348 70.8399071 25.21277348 70.8399071 25.4375 72.9375 C28.9025 72.4425 28.9025 72.4425 32.4375 71.9375 C34.8392201 75.54008015 34.91087576 76.67711816 34.4375 80.9375 C33.27659582 84.0265146 31.9074553 86.98446481 30.4375 89.9375 C28.4575 89.9375 26.4775 89.9375 24.4375 89.9375 C24.416875 91.21625 24.39625 92.495 24.375 93.8125 C23.72315762 100.05438461 20.19796076 104.12619455 16.4375 108.9375 C15.7775 109.9275 15.1175 110.9175 14.4375 111.9375 C14.9325 112.72125 15.4275 113.505 15.9375 114.3125 C17.4375 116.9375 17.4375 116.9375 17.4375 118.9375 C18.0147583 119.21706543 18.5920166 119.49663086 19.18676758 119.78466797 C21.4375 120.9375 21.4375 120.9375 23.3815918 122.12548828 C29.44797831 125.81445871 35.35252827 127.34445519 42.25 128.8125 C57.13507163 132.28398997 67.97654374 137.87533351 77.30859375 150.4609375 C78.4375 152.9375 78.4375 152.9375 77.8125 155.0234375 C75.26616451 158.56805224 72.40134045 161.73677267 69.4375 164.9375 C68.70273438 165.73800781 67.96796875 166.53851563 67.2109375 167.36328125 C48.53604097 186.92021687 22.1397794 197.9777758 -4.74609375 199.06640625 C-34.52340306 199.5733979 -62.09809752 189.76283131 -83.71484375 168.9375 C-93.92743141 158.90308352 -93.92743141 158.90308352 -96.5625 154.9375 C-96.41687151 149.01154057 -89.7278354 144.05104272 -85.75 140.25 C-77.82317725 134.49916781 -69.87553469 132.00570564 -60.3125 130.3125 C-51.10279665 128.66150502 -51.10279665 128.66150502 -42.5625 124.9375 C-41.9025 124.9375 -41.2425 124.9375 -40.5625 124.9375 C-40.0675 123.4525 -40.0675 123.4525 -39.5625 121.9375 C-38.9025 121.9375 -38.2425 121.9375 -37.5625 121.9375 C-35.74390368 117.93658809 -34.6399592 114.35267426 -34.5625 109.9375 C-36.59067452 107.17695907 -36.59067452 107.17695907 -38.21484375 105.5390625 C-41.22085644 101.96669959 -42.46315602 97.52700361 -42.75 92.9375 C-42.6571875 91.9475 -42.6571875 91.9475 -42.5625 90.9375 C-43.655625 90.89625 -44.74875 90.855 -45.875 90.8125 C-49.5625 89.9375 -49.5625 89.9375 -51.5 87.625 C-52.97554047 82.5040066 -53.71507651 77.19233897 -52.5625 71.9375 C-50.03125 70.07421875 -50.03125 70.07421875 -47.5625 68.9375 C-48.8825 68.2775 -50.2025 67.6175 -51.5625 66.9375 C-51.57708252 66.28265625 -51.59166504 65.6278125 -51.60668945 64.953125 C-51.68178043 61.94736327 -51.77823671 58.94263903 -51.875 55.9375 C-51.90883789 54.39255859 -51.90883789 54.39255859 -51.94335938 52.81640625 C-52.19690296 45.5788893 -52.77343403 39.23366887 -57.625 33.5 C-59.48155346 31.88907245 -59.48155346 31.88907245 -61.5625 30.9375 C-55.74238971 17.09418682 -38.9497924 5.3491166 -25.76171875 -0.578125 C-17.44475602 -3.84668165 -8.1792795 -3.68748153 0 0 Z " fill="#E8BD79" transform="translate(119.5625,29.0625)"/>
<path d="M0 0 C1.32863259 0.27592063 2.65960138 0.54072858 3.9921875 0.796875 C19.00304412 3.77059614 30.57582988 9.98744489 39.87109375 22.5234375 C41 25 41 25 40.375 27.0859375 C37.82866451 30.63055224 34.96384045 33.79927267 32 37 C31.26523438 37.80050781 30.53046875 38.60101563 29.7734375 39.42578125 C11.09854097 58.98271687 -15.2977206 70.0402758 -42.18359375 71.12890625 C-71.96090306 71.6358979 -99.53559752 61.82533131 -121.15234375 41 C-131.36493141 30.96558352 -131.36493141 30.96558352 -134 27 C-133.85437151 21.07404057 -127.1653354 16.11354272 -123.1875 12.3125 C-115.26710115 6.56632828 -107.23176407 4.0154815 -97.6875 2.25 C-96.62982422 2.04246094 -95.57214844 1.83492187 -94.48242188 1.62109375 C-92.52689345 1.23862447 -90.57022838 0.86188198 -88.61206055 0.49316406 C-86.83446344 0.15754894 -85.06336051 -0.21400434 -83.29980469 -0.61694336 C-80.29002057 -1.11825454 -79.16180826 -0.34865965 -76.5625 1.1875 C-61.83509005 8.9069916 -44.35437294 10.93691639 -28.21679688 6.45507812 C-23.17072755 4.85723712 -18.61529491 2.90505191 -14.125 0.0625 C-9.01414367 -2.98104366 -5.46830337 -1.57053099 0 0 Z " fill="#194692" transform="translate(157,157)"/>
<path d="M0 0 C3.87789438 2.26479356 6.59877768 5.09493351 9.6015625 8.38671875 C11.79934041 10.24313967 13.52771986 10.71093704 16.3125 11.375 C23.06743093 13.06373273 27.99678015 17.238392 31.81640625 23.02734375 C32.83191154 24.97966203 33.67961927 26.87198049 34.4375 28.9375 C34.96923828 30.30648438 34.96923828 30.30648438 35.51171875 31.703125 C38.40658068 41.81681985 37.09606379 53.5777636 32.4375 62.9375 C30.6059128 65.68020838 28.84471392 67.63494755 26.4375 69.9375 C25.7775 69.9375 25.1175 69.9375 24.4375 69.9375 C24.38142578 68.25333984 24.38142578 68.25333984 24.32421875 66.53515625 C23.83295866 54.48246007 22.99013097 44.49013097 14 35.5 C11.58196856 33.72058024 11.58196856 33.72058024 8.9375 33.9375 C5.93140655 35.13993738 3.95092789 36.90282028 1.4375 38.9375 C-4.86894988 42.07048601 -11.19107829 43.15089334 -18.09179688 44.31054688 C-25.11017702 45.59002274 -31.15681012 47.12555123 -35.921875 52.6953125 C-37.77631404 56.36003727 -38.87168276 59.83330576 -39.8125 63.8125 C-39.98523438 64.50085938 -40.15796875 65.18921875 -40.3359375 65.8984375 C-40.75521642 67.57555318 -41.16035544 69.25619349 -41.5625 70.9375 C-45.05779294 69.82536134 -48.30719192 68.62176809 -51.5625 66.9375 C-51.57708252 66.28265625 -51.59166504 65.6278125 -51.60668945 64.953125 C-51.68178043 61.94736327 -51.77823671 58.94263903 -51.875 55.9375 C-51.89755859 54.90753906 -51.92011719 53.87757812 -51.94335938 52.81640625 C-52.19690296 45.5788893 -52.77343403 39.23366887 -57.625 33.5 C-59.48155346 31.88907245 -59.48155346 31.88907245 -61.5625 30.9375 C-55.74238971 17.09418682 -38.9497924 5.3491166 -25.76171875 -0.578125 C-17.44475602 -3.84668165 -8.1792795 -3.68748153 0 0 Z " fill="#462917" transform="translate(119.5625,29.0625)"/>
<path d="M0 0 C0.33 0 0.66 0 1 0 C1 34.32 1 68.64 1 104 C-32.99 104 -66.98 104 -102 104 C-102 103.67 -102 103.34 -102 103 C-101.1028125 102.91363281 -100.205625 102.82726562 -99.28125 102.73828125 C-74.0576482 99.8980203 -52.35598084 89.59903317 -34 72 C-32.93652344 71.01386719 -32.93652344 71.01386719 -31.8515625 70.0078125 C-12.77855701 51.81172681 -3.17497064 25.5865281 0 0 Z " fill="#FDFEFE" transform="translate(220,124)"/>
<path d="M0 0 C0.33 0 0.66 0 1 0 C1.08636719 0.81339844 1.17273438 1.62679687 1.26171875 2.46484375 C3.52181839 20.89813351 9.30133518 41.20601661 20.65234375 56.1796875 C22 58 22 58 22.4375 60.125 C22.623125 60.74375 22.80875 61.3625 23 62 C23.60457031 62.29390625 24.20914062 62.5878125 24.83203125 62.890625 C27.30526508 64.15620772 28.49454026 65.48606605 30.25 67.625 C44.23776189 84.00307563 62.21247905 95.23077612 83 101 C83.76441406 101.21269531 84.52882813 101.42539063 85.31640625 101.64453125 C91.4628664 103.1728997 97.69376819 103.59452317 104 104 C104 104.33 104 104.66 104 105 C69.68 105 35.36 105 0 105 C0 70.35 0 35.7 0 0 Z " fill="#FCFDFE" transform="translate(0,123)"/>
<path d="M0 0 C33.99 0 67.98 0 103 0 C103 34.32 103 68.64 103 104 C102.67 104 102.34 104 102 104 C101.85304688 102.90945312 101.70609375 101.81890625 101.5546875 100.6953125 C98.20388292 77.50203023 89.89363605 57.20647905 75 39 C74.46632813 38.32582031 73.93265625 37.65164062 73.3828125 36.95703125 C63.01810765 24.26727099 48.70964307 15.73093584 34 9 C33.13761719 8.59910156 32.27523437 8.19820312 31.38671875 7.78515625 C21.49464595 3.49481371 10.70956103 1.71561583 0 1 C0 0.67 0 0.34 0 0 Z " fill="#FEFEFE" transform="translate(118,0)"/>
<path d="M0 0 C34.32 0 68.64 0 104 0 C104 0.33 104 0.66 104 1 C102.95779297 1.00386719 102.95779297 1.00386719 101.89453125 1.0078125 C79.07341889 1.8755354 58.40932872 11.67687046 41 26 C40.25234375 26.60714844 39.5046875 27.21429687 38.734375 27.83984375 C30.762909 34.54865387 23.68551606 42.62896789 19 52 C18.34 52 17.68 52 17 52 C16.86948242 52.5875708 16.73896484 53.1751416 16.60449219 53.78051758 C15.85238147 56.54200324 14.59511828 58.97676154 13.32080078 61.5300293 C5.09848639 78.09651181 2.09740765 93.58051368 1 112 C0.67 112 0.34 112 0 112 C0 75.04 0 38.08 0 0 Z " fill="#FEFEFE" transform="translate(0,0)"/>
<path d="M0 0 C0 26.4 0 52.8 0 80 C-11.21861606 78.87813839 -16.02817934 75.97534308 -24 69 C-24.99 69.495 -24.99 69.495 -26 70 C-35.37336815 54.53394256 -35.37336815 54.53394256 -35 48 C-36.093125 47.95875 -37.18625 47.9175 -38.3125 47.875 C-42 47 -42 47 -43.9375 44.6875 C-45.432895 39.49759969 -45.61867366 34.36719488 -45 29 C-42.59179639 26.59179639 -41.34977063 26.31902577 -38 26 C-35.8359375 26.984375 -35.8359375 26.984375 -34 28 C-33.9175 26.700625 -33.835 25.40125 -33.75 24.0625 C-33.01478627 17.57832339 -30.81398317 12.33226407 -26.8125 7.1875 C-18.42920088 0.66715624 -10.4570769 0 0 0 Z " fill="#F1CC8C" transform="translate(112,72)"/>
<path d="M0 0 C0.49628906 0.38671875 0.99257812 0.7734375 1.50390625 1.171875 C10.35140339 8.08560361 10.35140339 8.08560361 21 11 C22.2375 11.12375 23.475 11.2475 24.75 11.375 C32.25578946 11.28872656 39.07321927 6.21113368 45 2 C45.515625 2.7425 46.03125 3.485 46.5625 4.25 C49.34160912 7.38540516 52.31441614 9.14531909 56 11 C57.134375 11.5775 58.26875 12.155 59.4375 12.75 C60.7059375 13.36875 60.7059375 13.36875 62 14 C57.31722847 18.35982177 51.86375439 20.64507856 46 23 C45.21238281 23.32484375 44.42476562 23.6496875 43.61328125 23.984375 C28.44318261 29.16321705 10.57343339 26.94506103 -4 21 C-6.92496734 19.50312875 -9.35839719 17.96715103 -12 16 C-11.0409375 15.5978125 -11.0409375 15.5978125 -10.0625 15.1875 C-7.66868314 14.11332248 -7.66868314 14.11332248 -7 11 C-6.34 11 -5.68 11 -5 11 C-4.731875 10.29875 -4.46375 9.5975 -4.1875 8.875 C-2.9318551 5.8350176 -1.49764877 2.9272226 0 0 Z " fill="#D8B173" transform="translate(87,140)"/>
<path d="M0 0 C1.0209375 1.11375 1.0209375 1.11375 2.0625 2.25 C6.55656478 6.74406478 12.34395414 9.24095324 18 12 C13.14891017 16.68938684 6.8949708 18.89180637 0.1875 19.078125 C-0.534375 19.05234375 -1.25625 19.0265625 -2 19 C-2 19.66 -2 20.32 -2 21 C-4.97 21 -7.94 21 -11 21 C-11 21.66 -11 22.32 -11 23 C-13.64 23 -16.28 23 -19 23 C-19 18.71 -19 14.42 -19 10 C-18.13117188 9.69707031 -17.26234375 9.39414063 -16.3671875 9.08203125 C-10.01815486 6.77393773 -4.807223 4.807223 0 0 Z " fill="#D2A760" transform="translate(131,142)"/>
<path d="M0 0 C0.66 1.32 1.32 2.64 2 4 C1.01 5.485 1.01 5.485 0 7 C-0.66 7 -1.32 7 -2 7 C-2 7.66 -2 8.32 -2 9 C-2.99 9.66 -3.98 10.32 -5 11 C-4.67 13.31 -4.34 15.62 -4 18 C-3.01 18 -2.02 18 -1 18 C-0.67 19.65 -0.34 21.3 0 23 C-5.30721977 20.64123566 -6.83639731 17.08869684 -9 12 C-8.60167969 11.55269531 -8.20335937 11.10539063 -7.79296875 10.64453125 C-4.82015875 7.25220061 -2.1717806 3.98159776 0 0 Z " fill="#E2E4DC" transform="translate(142,128)"/>
<path d="M0 0 C1.27118864 0.79109602 2.54193623 1.58290078 3.8125 2.375 C4.52019531 2.81585938 5.22789062 3.25671875 5.95703125 3.7109375 C7.65432039 4.78188476 9.33014358 5.88676239 11 7 C4.25 11 4.25 11 2 11 C2 10.01 2 9.02 2 8 C1.34 7.67 0.68 7.34 0 7 C0 4.69 0 2.38 0 0 Z " fill="#C6A874" transform="translate(138,148)"/>
<path d="M0 0 C2.35171131 0.59861742 4.6859378 1.26924352 7 2 C7.33 2.66 7.66 3.32 8 4 C6.35 4.66 4.7 5.32 3 6 C3 10.95 3 15.9 3 21 C0 18 0 18 -0.34057617 16.00708008 C-0.32486572 15.26868896 -0.30915527 14.53029785 -0.29296875 13.76953125 C-0.28330078 12.96708984 -0.27363281 12.16464844 -0.26367188 11.33789062 C-0.23853516 10.50451172 -0.21339844 9.67113281 -0.1875 8.8125 C-0.17396484 7.96751953 -0.16042969 7.12253906 -0.14648438 6.25195312 C-0.11115799 4.16769616 -0.05735139 2.08376723 0 0 Z " fill="#E1E6DE" transform="translate(65,95)"/>
<path d="M0 0 C0.66 0.33 1.32 0.66 2 1 C0.63854692 4.13608345 -0.79511789 5.9145345 -3.4375 8.0625 C-8.9517679 12.71357679 -13.94557314 17.86195211 -19 23 C-19.99 22.67 -20.98 22.34 -22 22 C-21.21496094 21.28714844 -20.42992187 20.57429688 -19.62109375 19.83984375 C-9.01280093 10.64999775 -9.01280093 10.64999775 0 0 Z " fill="#DAE8F5" transform="translate(197,184)"/>
<path d="M0 0 C0.804375 0.12375 1.60875 0.2475 2.4375 0.375 C4.76329101 3.86368651 4.85615457 5.27218519 4.4375 9.375 C2.9375 11.75 2.9375 11.75 1.4375 13.375 C-0.16975635 10.16048731 0.38001815 6.93887464 0.4375 3.375 C-1.5425 3.375 -3.5225 3.375 -5.5625 3.375 C-3.76123295 1.09971531 -2.9258843 0.42817819 0 0 Z " fill="#E0C187" transform="translate(149.5625,100.625)"/>
<path d="M0 0 C0.86625 0.268125 1.7325 0.53625 2.625 0.8125 C2.625 1.8025 2.625 2.7925 2.625 3.8125 C1.635 3.8125 0.645 3.8125 -0.375 3.8125 C-1.035 5.1325 -1.695 6.4525 -2.375 7.8125 C-2.973125 7.6475 -3.57125 7.4825 -4.1875 7.3125 C-6.48844336 6.7010876 -6.48844336 6.7010876 -9.375 6.8125 C-9.375 4.8125 -9.375 4.8125 -6.75 2.125 C-4.08334166 -0.04642179 -3.64748636 -0.20263813 0 0 Z " fill="#E5BE7A" transform="translate(130.375,62.1875)"/>
<path d="M0 0 C-16.11383525 6.80215176 -16.11383525 6.80215176 -22 5 C-21.34 5 -20.68 5 -20 5 C-20 4.34 -20 3.68 -20 3 C-17.03 3 -14.06 3 -11 3 C-11 2.34 -11 1.68 -11 1 C-4.03571429 -1.27678571 -4.03571429 -1.27678571 0 0 Z " fill="#B7A47F" transform="translate(140,160)"/>
<path d="M0 0 C-0.19921875 1.88671875 -0.19921875 1.88671875 -1 4 C-3.14453125 5.08203125 -3.14453125 5.08203125 -5.8125 5.8125 C-6.68519531 6.06644531 -7.55789062 6.32039062 -8.45703125 6.58203125 C-11.03957999 7.00650547 -12.55026641 6.8394192 -15 6 C-11.535 5.505 -11.535 5.505 -8 5 C-7.67 4.01 -7.34 3.02 -7 2 C-4 0 -4 0 0 0 Z " fill="#1D4386" transform="translate(148,218)"/>
<path d="M0 0 C1.60517097 0.08733576 3.20921662 0.19552224 4.8125 0.3125 C6.15248047 0.39951172 6.15248047 0.39951172 7.51953125 0.48828125 C10.30604 1.06313581 11.24135754 1.8206856 13 4 C12.67 4.99 12.34 5.98 12 7 C8.04 5.02 4.08 3.04 0 1 C0 0.67 0 0.34 0 0 Z " fill="#D3D8D8" transform="translate(114,27)"/>
<path d="M0 0 C-2 2 -2 2 -5.9140625 2.1953125 C-7.48449351 2.18200376 -9.05486221 2.15813602 -10.625 2.125 C-11.42679687 2.11597656 -12.22859375 2.10695312 -13.0546875 2.09765625 C-15.03658523 2.07406223 -17.01832981 2.03819065 -19 2 C-19 1.67 -19 1.34 -19 1 C-16.58440932 0.63645961 -14.16805703 0.28389449 -11.75 -0.0625 C-11.06808594 -0.16626953 -10.38617188 -0.27003906 -9.68359375 -0.37695312 C-6.2150075 -0.86524925 -3.33088887 -1.22762141 0 0 Z " fill="#D2E5F5" transform="translate(137,226)"/>
<path d="M0 0 C0.33 0.99 0.66 1.98 1 3 C2.65 3 4.3 3 6 3 C6 3.66 6 4.32 6 5 C7.32 5 8.64 5 10 5 C10.33 5.99 10.66 6.98 11 8 C1.40546697 5.29384966 1.40546697 5.29384966 -2 1 C-1.34 0.67 -0.68 0.34 0 0 Z " fill="#BDAD91" transform="translate(77,154)"/>
<path d="M0 0 C2.64 0.33 5.28 0.66 8 1 C8 1.66 8 2.32 8 3 C5.03 3.66 2.06 4.32 -1 5 C-1.33 4.34 -1.66 3.68 -2 3 C-1.34 3 -0.68 3 0 3 C0 2.01 0 1.02 0 0 Z " fill="#CEE1F4" transform="translate(66,154)"/>
<path d="M0 0 C1 3 1 3 0.00390625 5.48046875 C-0.47175781 6.37378906 -0.94742188 7.26710937 -1.4375 8.1875 C-1.91058594 9.08855469 -2.38367188 9.98960937 -2.87109375 10.91796875 C-3.24363281 11.60503906 -3.61617188 12.29210937 -4 13 C-5.32 12.67 -6.64 12.34 -8 12 C-7.01 11.67 -6.02 11.34 -5 11 C-3.92745649 8.73774618 -3.92745649 8.73774618 -3 6 C-2.01517978 3.99248185 -1.01847486 1.99065541 0 0 Z " fill="#CBB688" transform="translate(87,140)"/>
<path d="M0 0 C2.0625 1.75 2.0625 1.75 4 4 C3.75 6.25 3.75 6.25 3 8 C1.02 6.35 -0.96 4.7 -3 3 C-2.01 2.67 -1.02 2.34 0 2 C0 1.34 0 0.68 0 0 Z " fill="#CEE3F3" transform="translate(188,165)"/>
<path d="M0 0 C0.33 0 0.66 0 1 0 C1 1.98 1 3.96 1 6 C0.34 6 -0.32 6 -1 6 C-1.33 6.66 -1.66 7.32 -2 8 C-4.31 7.67 -6.62 7.34 -9 7 C-8.67 6.34 -8.34 5.68 -8 5 C-2.55072464 3.72463768 -2.55072464 3.72463768 0 5 C0 3.35 0 1.7 0 0 Z " fill="#DDBD88" transform="translate(78,95)"/>
<path d="M0 0 C0.33 1.65 0.66 3.3 1 5 C-1.88575819 4.60196439 -2.82189513 4.20990931 -4.75 1.9375 C-5.1625 1.298125 -5.575 0.65875 -6 0 C-3.50907189 -1.24546405 -2.58919267 -0.7767578 0 0 Z " fill="#D8E1E1" transform="translate(133,35)"/>
<path d="M0 0 C2.39489543 0.74324341 3.70777616 1.47057354 4.93359375 3.69140625 C5.67219923 5.44073501 6.34049685 7.21934149 7 9 C6.01 9 5.02 9 4 9 C2 5.25 2 5.25 2 3 C1.34 2.67 0.68 2.34 0 2 C0 1.34 0 0.68 0 0 Z " fill="#DFB97D" transform="translate(135,67)"/>
<path d="M0 0 C2.97 0.495 2.97 0.495 6 1 C6 1.99 6 2.98 6 4 C3.03 4 0.06 4 -3 4 C-2.01 2.68 -1.02 1.36 0 0 Z " fill="#D4AF7B" transform="translate(127,62)"/>
<path d="M0 0 C0.33 1.32 0.66 2.64 1 4 C0.01 4.495 0.01 4.495 -1 5 C-1.65555119 7.52733235 -1.65555119 7.52733235 -2 10 C-2.99 10.33 -3.98 10.66 -5 11 C-3.92289822 6.69159287 -2.96052484 3.36423277 0 0 Z " fill="#DCBA86" transform="translate(85,79)"/>
<path d="M0 0 C5.57142857 5.14285714 5.57142857 5.14285714 6 9 C5.01 9.66 4.02 10.32 3 11 C2.51171875 9.01432292 2.0234375 7.02864583 1.53515625 5.04296875 C1.08989295 3.34316798 0.55566015 1.66698046 0 0 Z " fill="#254B85" transform="translate(192,175)"/>
<path d="M0 0 C0.99 0.33 1.98 0.66 3 1 C0.22719294 4.08089673 -2.06326356 5.68775452 -6 7 C-4.02 4.69 -2.04 2.38 0 0 Z " fill="#154282" transform="translate(32,171)"/>
<path d="M0 0 C1.95582488 2.93373731 3.56224304 5.78216298 5 9 C4.67 9.66 4.34 10.32 4 11 C2 9.4375 2 9.4375 0 7 C-0.25 3.25 -0.25 3.25 0 0 Z " fill="#E5E3D1" transform="translate(77,125)"/>
<path d="M0 0 C0.66 0.33 1.32 0.66 2 1 C2 3.31 2 5.62 2 8 C1.01 8.495 1.01 8.495 0 9 C-1.125 3.375 -1.125 3.375 0 0 Z " fill="#D6DEE3" transform="translate(154,52)"/>
<path d="M0 0 C1.65 0 3.3 0 5 0 C3.35 1.98 1.7 3.96 0 6 C-1.125 2.25 -1.125 2.25 0 0 Z " fill="#D8DDDE" transform="translate(75,36)"/>
<path d="M0 0 C0.99 0.33 1.98 0.66 3 1 C1.37660195 2.70884005 -0.29319053 4.37446717 -2 6 C-2.66 6 -3.32 6 -4 6 C-2.25 1.125 -2.25 1.125 0 0 Z " fill="#43250A" transform="translate(126,60)"/>
<path d="M0 0 C1.98 0 3.96 0 6 0 C4.515 1.485 4.515 1.485 3 3 C2.01 2.67 1.02 2.34 0 2 C0 1.34 0 0.68 0 0 Z M0 3 C0.99 3.495 0.99 3.495 2 4 C2 4.66 2 5.32 2 6 C1.34 6 0.68 6 0 6 C0 5.01 0 4.02 0 3 Z " fill="#214A8A" transform="translate(62,159)"/>
<path d="M0 0 C0.33 0.66 0.66 1.32 1 2 C1.66 2 2.32 2 3 2 C2.6875 3.9375 2.6875 3.9375 2 6 C1.01 6.33 0.02 6.66 -1 7 C-0.67 4.69 -0.34 2.38 0 0 Z " fill="#CCD1CF" transform="translate(155,80)"/>
<path d="M0 0 C0.33 0.66 0.66 1.32 1 2 C0.0625 4.625 0.0625 4.625 -1 7 C-1.99 6.67 -2.98 6.34 -4 6 C-2.84826645 3.53199953 -1.95216435 1.95216435 0 0 Z " fill="#48362E" transform="translate(67,48)"/>
</svg>
